<svg width="74" height="74" xmlns="http://www.w3.org/2000/svg" xmlns:xlink="http://www.w3.org/1999/xlink" overflow="hidden"><defs><linearGradient x1="604" y1="324" x2="675.698" y2="395.698" gradientUnits="userSpaceOnUse" spreadMethod="pad" id="fill0"><stop offset="0" stop-color="#33D35E" stop-opacity="0.98"/><stop offset="1" stop-color="#2AB6D9" stop-opacity="0.98"/></linearGradient></defs><g transform="translate(-603 -323)"><g><g><g><path d="M676 360C676 379.882 659.882 396 640 396 620.118 396 604 379.882 604 360 604 340.118 620.118 324 640 324 659.882 324 676 340.118 676 360Z" fill="url(#fill0)" fill-rule="evenodd"/><path d="M648.633 340C650.34 340.002 651.723 341.385 651.725 343.092L651.725 350.662C656.955 350.948 661.118 355.027 661.118 360 661.118 364.973 656.956 369.052 651.725 369.338L651.725 376.908C651.723 378.615 650.34 379.998 648.633 380L631.099 380C629.392 379.998 628.009 378.615 628.007 376.908L628.007 369.668C628.007 369.344 628.27 369.081 628.594 369.081 628.918 369.081 629.181 369.344 629.181 369.668L629.181 373.19 650.551 373.19 650.551 369.338C649.566 369.286 648.593 369.094 647.661 368.77L643.278 371.161C642.812 371.415 642.265 370.941 642.445 370.445L643.753 366.849 637.048 366.849C636.892 366.848 636.743 366.787 636.633 366.677L631.936 361.981C631.826 361.871 631.765 361.721 631.764 361.566L631.764 348.728C631.764 348.404 632.027 348.141 632.351 348.141L647.381 348.141C647.705 348.141 647.968 348.404 647.968 348.728L647.968 351.13C648.787 350.872 649.653 350.711 650.551 350.662L650.551 346.184 629.18 346.184 629.18 366.888C629.18 367.212 628.917 367.475 628.593 367.475 628.269 367.475 628.006 367.212 628.006 366.888L628.006 343.092C628.008 341.385 629.392 340.002 631.099 340ZM650.551 374.364 629.18 374.364 629.18 376.908C629.181 377.967 630.039 378.825 631.098 378.826L648.632 378.826C649.691 378.825 650.549 377.967 650.55 376.908L650.55 374.364ZM641.118 375.069C641.443 375.069 641.705 375.331 641.705 375.656L641.705 377.534C641.705 377.858 641.442 378.121 641.118 378.121L638.613 378.121C638.289 378.121 638.026 377.858 638.026 377.534L638.026 375.656C638.026 375.331 638.289 375.069 638.613 375.069ZM640.531 376.243 639.201 376.243 639.201 376.947 640.531 376.947 640.531 376.243ZM651.138 351.82C646.282 351.82 642.332 355.49 642.332 360 642.332 362.217 643.272 364.293 644.979 365.846 645.156 366.006 645.218 366.256 645.136 366.481L644.08 369.386 647.331 367.613C647.482 367.531 647.661 367.518 647.821 367.579 648.881 367.979 650.005 368.182 651.138 368.18 655.994 368.18 659.944 364.51 659.944 360 659.944 355.49 655.994 351.82 651.138 351.82ZM651.138 353.15C651.462 353.15 651.725 353.414 651.725 353.738L651.725 355.029 651.765 355.029C653.126 355.031 654.228 356.134 654.23 357.495L654.23 358.121C654.23 358.445 653.967 358.708 653.643 358.708 653.319 358.708 653.056 358.445 653.056 358.121L653.056 357.495C653.056 356.783 652.476 356.204 651.764 356.204L650.824 356.204C649.94 356.204 649.22 356.924 649.22 357.808 649.22 358.693 649.94 359.413 650.825 359.413L651.451 359.413C652.985 359.415 654.228 360.658 654.23 362.192 654.23 363.632 653.13 364.819 651.725 364.957L651.725 366.262C651.725 366.586 651.462 366.849 651.138 366.849 650.814 366.849 650.551 366.586 650.551 366.262L650.551 364.971 650.511 364.971C649.15 364.969 648.048 363.866 648.046 362.505 648.046 362.181 648.309 361.918 648.633 361.918 648.957 361.918 649.22 362.181 649.22 362.505 649.22 363.217 649.8 363.796 650.512 363.796L651.451 363.796C652.336 363.796 653.056 363.076 653.056 362.192 653.056 361.307 652.336 360.587 651.451 360.587L650.825 360.587C649.291 360.586 648.047 359.342 648.045 357.808 648.045 356.368 649.147 355.181 650.551 355.043L650.551 353.738C650.551 353.414 650.814 353.151 651.138 353.151ZM646.793 349.315 632.938 349.315 632.938 360.978 637.048 360.978C637.372 360.978 637.635 361.241 637.635 361.566L637.635 365.676 643.202 365.676C641.875 364.054 641.158 362.083 641.158 360 641.158 358.888 641.366 357.82 641.748 356.83L635.482 356.83C635.158 356.83 634.895 356.567 634.895 356.243 634.895 355.919 635.158 355.656 635.482 355.656L642.302 355.656C642.701 354.945 643.195 354.287 643.768 353.699L641.745 353.699C641.421 353.699 641.158 353.436 641.158 353.112 641.158 352.788 641.421 352.525 641.745 352.525L644.875 352.525C644.951 352.525 645.023 352.539 645.089 352.565 645.619 352.185 646.189 351.855 646.793 351.58L646.793 349.315ZM636.461 362.153 633.769 362.153 636.461 364.845 636.461 362.153ZM639.866 358.787C640.19 358.787 640.453 359.05 640.453 359.374 640.453 359.698 640.19 359.961 639.866 359.961L635.482 359.961C635.158 359.961 634.895 359.698 634.895 359.374 634.895 359.05 635.158 358.787 635.482 358.787ZM639.24 352.524C639.565 352.524 639.828 352.787 639.828 353.112 639.828 353.436 639.565 353.699 639.24 353.699L635.482 353.699C635.157 353.699 634.895 353.436 634.895 353.112 634.895 352.787 635.157 352.524 635.482 352.524ZM648.633 341.174 631.099 341.174C630.04 341.175 629.182 342.033 629.181 343.092L629.181 345.01 650.551 345.01 650.551 343.092C650.55 342.033 649.692 341.175 648.633 341.174ZM641.118 342.504C641.443 342.504 641.706 342.767 641.706 343.091 641.706 343.416 641.443 343.679 641.118 343.679L638.613 343.679C638.289 343.679 638.026 343.416 638.026 343.092 638.026 342.768 638.289 342.505 638.613 342.505Z" fill="#FFFFFF" fill-opacity="0.98"/></g></g></g><path d="M617.5 360.5C617.5 347.245 627.797 336.5 640.5 336.5 653.203 336.5 663.5 347.245 663.5 360.5 663.5 373.755 653.203 384.5 640.5 384.5 627.797 384.5 617.5 373.755 617.5 360.5Z" stroke="#172C51" stroke-width="1.33333" stroke-miterlimit="8" fill="#F2F2F2" fill-rule="evenodd"/><g><g><g><path d="M24.4792 16.1562C24.4792 16.697 24.0408 17.1354 23.5 17.1354 22.9592 17.1354 22.5208 16.697 22.5208 16.1562 22.5208 15.6155 22.9592 15.1771 23.5 15.1771 24.0408 15.1771 24.4792 15.6155 24.4792 16.1562Z" fill="#00B0F0" transform="matrix(1 0 0 1.02128 617 336)"/><path d="M24.4792 35.7396C24.4792 36.2804 24.0408 36.7188 23.5 36.7188 22.9592 36.7188 22.5208 36.2804 22.5208 35.7396 22.5208 35.1988 22.9592 34.7604 23.5 34.7604 24.0408 34.7604 24.4792 35.1988 24.4792 35.7396Z" fill="#00B0F0" transform="matrix(1 0 0 1.02128 617 336)"/><path d="M34.2708 25.4583C34.2708 25.9991 33.8324 26.4375 33.2917 26.4375 32.7509 26.4375 32.3125 25.9991 32.3125 25.4583 32.3125 24.9176 32.7509 24.4792 33.2917 24.4792 33.8324 24.4792 34.2708 24.9176 34.2708 25.4583Z" fill="#00B0F0" transform="matrix(1 0 0 1.02128 617 336)"/><path d="M14.6875 25.4583C14.6875 25.9991 14.2491 26.4375 13.7083 26.4375 13.1676 26.4375 12.7292 25.9991 12.7292 25.4583 12.7292 24.9176 13.1676 24.4792 13.7083 24.4792 14.2491 24.4792 14.6875 24.9176 14.6875 25.4583Z" fill="#00B0F0" transform="matrix(1 0 0 1.02128 617 336)"/><path d="M24.4792 18.6042 22.5208 18.6042 22.5208 25.4583C22.5208 25.7031 22.6188 25.9479 22.8146 26.1438L27.6615 30.9906 29.0323 29.6198 24.4792 25.0667 24.4792 18.6042Z" fill="#00B0F0" transform="matrix(1 0 0 1.02128 617 336)"/><path d="M23.5 39.6562C15.9115 39.6562 9.79167 33.5365 9.79167 25.9479 9.79167 18.3594 15.9115 12.2396 23.5 12.2396 31.0885 12.2396 37.2083 18.3594 37.2083 25.9479 37.2083 33.5365 31.0885 39.6562 23.5 39.6562L23.5 39.6562ZM35.1031 14.0021 36.5719 12.5333C37.1104 11.9458 37.1104 11.0646 36.5229 10.4771 35.9844 9.93854 35.0542 9.88958 34.4667 10.4281L32.8021 12.1417C30.4521 10.575 27.7594 9.59583 24.9688 9.4L24.9688 7.34375 29.375 7.34375 29.375 4.40625 17.625 4.40625 17.625 7.34375 22.0312 7.34375 22.0312 9.35104C14.2469 10.0365 7.98021 16.0583 7.00104 23.8427 6.02188 31.6271 10.575 39.0198 17.9677 41.6146 25.3604 44.2094 33.5365 41.3698 37.6979 34.7115 41.8594 28.0531 40.6844 19.4365 35.1031 14.0021L35.1031 14.0021Z" fill="#00B0F0" transform="matrix(1 0 0 1.02128 617 336)"/></g></g></g></g></svg>