<?xml version="1.0" encoding="UTF-8"?>
<!DOCTYPE svg PUBLIC "-//W3C//DTD SVG 1.0//EN" "http://www.w3.org/TR/2001/REC-SVG-20010904/DTD/svg10.dtd">
<!-- Creator: CorelDRAW 2020 (64-Bit) -->
<svg xmlns="http://www.w3.org/2000/svg" xml:space="preserve" width="2.53937in" height="0.511811in" version="1.0" style="shape-rendering:geometricPrecision; text-rendering:geometricPrecision; image-rendering:optimizeQuality; fill-rule:evenodd; clip-rule:evenodd"
viewBox="0 0 2539.37 511.81"
 xmlns:xlink="http://www.w3.org/1999/xlink"
 xmlns:xodm="http://www.corel.com/coreldraw/odm/2003">
 <defs>
  <style type="text/css">
   <![CDATA[
    .fil3 {fill:#FEFEFE;fill-rule:nonzero}
    .fil0 {fill:url(#id0)}
    .fil2 {fill:url(#id1);fill-opacity:0.149020}
    .fil1 {fill:url(#id2);fill-opacity:0.501961}
   ]]>
  </style>
  <linearGradient id="id0" gradientUnits="userSpaceOnUse" x1="143.09" y1="198.76" x2="21.89" y2="387.6">
   <stop offset="0" style="stop-opacity:1; stop-color:#33D35E"/>
   <stop offset="1" style="stop-opacity:1; stop-color:#2AB6D9"/>
  </linearGradient>
  <linearGradient id="id1" gradientUnits="userSpaceOnUse" xlink:href="#id0" x1="296.6" y1="198.76" x2="175.39" y2="387.6">
  </linearGradient>
  <linearGradient id="id2" gradientUnits="userSpaceOnUse" xlink:href="#id0" x1="219.84" y1="198.76" x2="98.64" y2="387.6">
  </linearGradient>
 </defs>
 <g id="Capa_x0020_1">
  <metadata id="CorelCorpID_0Corel-Layer"/>
  <path class="fil0" d="M116.58 190.56l-112.52 205.25 62.35 0 112.53 -205.25 -62.36 0z"/>
  <path class="fil1" d="M193.34 190.56l-112.53 205.25 62.35 0 112.53 -205.25 -62.35 0z"/>
  <path class="fil2" d="M270.09 190.56l-112.52 205.25 62.35 0 112.52 -205.25 -62.35 0z"/>
  <path class="fil3" d="M629.77 100.8c-158.46,0 -271.26,126.19 -271.26,198.61 0,34.83 19.99,44.61 35.79,44.31 0.49,0 0.98,0 1.48,0 48.62,0 143.16,-139.03 171.3,-154.61 -11.36,52.86 -81.7,202.89 -81.7,237.42 0,20.17 15.3,33.92 25.43,33.92 6.91,0 1.48,-10.08 1.48,-17.42 0,-33.3 84.67,-205.94 84.67,-243.22 0,-13.14 -18.27,-28.11 -25.43,-26.58l0 0c-29.13,0 -130.08,157.97 -173.77,157.97 -0.24,0 -0.49,0.3 -0.99,0.3 -4.69,-0.92 -8.63,-4.58 -8.63,-15.89 0,-43.69 96.51,-203.8 246.58,-203.8 154.02,0 -8.64,377.97 -196.72,377.97 -33.57,0 -21.47,-32.39 -33.32,-32.39 -11.6,0 -4.44,46.44 34.31,46.44 226.09,0 417.63,-403.03 190.8,-403.03z"/>
  <path id="1" class="fil3" d="M876.1 281.74c-6.17,16.24 -35.05,70.12 -66.89,81.12 12.83,-27.55 21.22,-61.82 21.22,-94.31 0,-18.64 -5.67,-31.78 -28.38,-31.78 -17.77,0 -34.56,18.64 -46.16,39.16 -4.44,-2.44 -9.63,-3.67 -13.82,-3.67 -8.39,0 -34.8,48.99 -34.8,87.54 0,40.13 20.24,60.6 41.22,60.6 20.24,0 39.98,-18.64 55.04,-46.19 42.46,-6.42 72.07,-70.43 78.98,-88.2 2.96,-8.25 -3.7,-13.44 -6.42,-4.28zm-126.87 125.83c-23.2,0 -14.07,-34.58 -2.47,-66.1 8.39,17.11 25.67,30.61 43.94,33.05 -11.35,19.3 -25.67,33.05 -41.47,33.05zm46.65 -42.52c-51.34,-2.49 5.93,-112.7 17.52,-112.7 15.06,0 5.68,66.76 -17.52,112.7z"/>
  <path id="2" class="fil3" d="M1015.31 281.79c-9.88,29.39 -51.34,123.96 -68.62,123.96 -23.69,0 36.53,-123.96 36.53,-138.37 0,-12.83 -11.11,-26.28 -18.26,-29.08 0,0 -0.25,-0.31 -0.25,-0.31 0,0 0,0 0,0 -0.25,0 -0.25,0 -0.5,0 -0.74,-0.3 -1.48,-0.3 -1.97,-0.3 -0.25,0 -0.25,0 -0.5,0 -7.41,0 -53.81,71.65 -75.78,106.23 12.34,-30.61 27.15,-62.43 27.15,-74.96 0,-26.33 -27.4,-40.74 -27.4,-26.63 0,31.22 -43.2,100.07 -43.2,141.11 0,22.31 14.07,36.97 25.18,36.97 7.41,0 1.48,-11 1.48,-18.94 0,-1.83 0.25,-4.28 0.5,-6.42 11.11,-31.83 64.17,-108.06 84.91,-135.31 -11.36,33.05 -39.25,98.28 -39.25,122.78 0,23.22 10.61,37.89 24.93,37.89l0 0c30.86,0 72.32,-110.46 82.2,-136.18 2.47,-7.03 -4.2,-9.17 -7.16,-2.44z"/>
  <path id="3" class="fil3" d="M987.67 362.36c0,27.5 12.84,58.06 36.78,58.06 18.27,0 40.48,-38.19 40.48,-38.19 0,0 1.24,38.19 27.89,38.19 24.19,0 69.85,-111.53 79.72,-137.5 2.47,-7.03 -4.19,-9.47 -7.16,-2.44 -8.39,20.78 -51.58,125.28 -68.86,125.28 -17.77,0 19.99,-81.89 19.99,-93.2 0,-11.3 -25.92,-31.17 -25.92,-18.94 0,12.22 -33.57,114.59 -62.44,114.59 -33.82,0 23.69,-151.25 58.5,-151.25 21.97,0 21.23,22.92 20.24,25.67 -0.74,2.44 2.96,6.72 5.19,0 2.47,-7.03 1.24,-45.83 -33.81,-45.83 -44.19,0 -90.59,72.11 -90.59,125.58z"/>
  <path id="4" class="fil3" d="M1538.09 83.39c0,-30.81 -24.69,-43.08 -24.69,-30.2 0,15.12 -6.91,32.95 -15.3,51.59 -3.45,-11.92 -12.59,-26.28 -36.78,-26.28 -50.6,0 -123.17,72.72 -123.17,123.75 0,14.36 2.71,26.28 7.16,36.06 -54.55,36.67 -109.34,112.75 -109.34,160.42 0,177.53 239.67,32.08 239.67,-50.72 0,-3.36 -1.72,-5.8 -6.17,-5.8 -3.95,0 -11.11,3.06 -11.11,11.91 0,65.7 -185.12,181.2 -185.12,54.09 0,-35.44 41.47,-111.83 97,-141.78 16.04,10.08 36.04,13.75 54.06,13.75 5.68,0 8.39,-4.28 8.39,-6.11 0,-2.44 -2.96,-1.22 -7.41,-1.22 -8.89,0 -26.17,-3.97 -40.48,-13.14 10.12,-3.97 20.49,-6.11 31.1,-6.11 12.34,0 20.73,7.33 20.73,12.83 0,1.83 -2.46,2.75 -2.46,5.5 0,0.92 0.49,2.75 2.46,2.75 1.73,0 11.35,-2.44 11.35,-15.89 0,-7.03 0,-41.56 -46.9,-41.56 -11.85,0 -24.93,3.97 -38.26,11 -0.5,-2.44 -0.5,-4.58 -0.5,-7.03 0,-35.44 52.08,-106.94 112.56,-106.94 7.65,0 13.33,3.36 15.3,7.03 -10.61,22.61 -20.73,45.22 -20.73,63.25 0,20.47 15.3,33.92 25.43,33.92 6.91,0 1.23,-10.08 1.23,-17.42 0,-33.3 41.96,-80.67 41.96,-117.64z"/>
  <path id="5" class="fil3" d="M1576.59 165.28c0,-18.64 -25.42,-41.56 -25.42,-27.5 0,31.78 -78.99,208.39 -78.99,244.75 0,23.22 10.37,37.89 24.69,37.89l0 0c33.32,0 84.17,-109.08 94.04,-134.75 2.47,-7.03 -4.44,-9.47 -7.16,-2.44 -8.39,20.78 -56.03,119.17 -77.5,119.17 -28.39,0 70.35,-196.78 70.35,-237.11z"/>
  <path id="6" class="fil3" d="M1713.33 281.39c0,0 -25.17,61.42 -40.97,61.42 -15.56,0 18.26,-51.64 18.26,-73.69 0,-26.48 -27.4,-40.89 -27.4,-26.79 0,28.01 -19.01,52.81 -19.01,72.37 0,7.33 2.96,15.89 7.41,22.91 -7.65,20.17 -29.13,70.59 -56.03,70.59 -37.03,0 27.15,-117.03 27.15,-139.08 0,-26.48 -27.64,-40.89 -27.64,-26.79 0,31.42 -40.24,89.17 -40.24,130.42 0,19.86 17.77,47.67 40.48,47.67 28.14,0 51.59,-50.11 61.95,-76.08 4.2,4.28 9.13,7.03 14.31,7.03 21.23,0 48.87,-67.53 48.87,-67.53 2.47,-7.03 -4.2,-9.17 -7.16,-2.44z"/>
  <path id="7" class="fil3" d="M1744.69 209.58c19,0 32.83,-15.58 32.83,-28.72 0,-13.44 -10.12,-21.08 -20.73,-21.08 -11.35,0 -22.46,49.8 -12.09,49.8zm48.38 70.99c-8.15,21.13 -54.55,125.18 -79.97,125.18 -23.7,0 36.53,-124.57 36.53,-138.98 0,-18.64 -23.94,-39.37 -23.94,-25.06 0,14.36 -43.93,109.85 -43.93,140.81 0,22.92 10.37,37.89 24.93,37.89l0 0c37.27,0 83.67,-111.37 93.55,-137.4 2.72,-7.03 -4.2,-9.17 -7.16,-2.44z"/>
  <path id="8" class="fil3" d="M1893.77 282c-8.89,25.06 -51.59,127.42 -69.85,127.42 -21.23,0 17.28,-77.92 17.28,-89.83 0,-11.61 -23.45,-10.39 -23.45,-40.03 0,-21.08 17.52,-43.08 17.52,-55 0,-11.61 -17.52,-15.28 -26.66,-15.28 -9.13,0 -19,26.89 -19,52.25 0,7.64 1.23,14.06 3.21,19.25 -0.25,0.3 -0.49,0.92 -0.49,1.22 -3.7,10.08 -6.42,17.42 -17.28,41.25 -2.96,5.8 3.7,9.78 6.67,3.36 9.38,-20.47 10.86,-24.75 15.3,-36.67 7.16,12.22 17.28,16.81 17.28,16.81 0,0 -22.46,48.89 -22.46,79.75 0,16.5 11.11,33.92 28.38,33.92 27.89,0 70.84,-110.31 80.46,-135.97 2.72,-7.03 -4.19,-9.17 -6.91,-2.44z"/>
  <path id="9" class="fil3" d="M1866.37 362.36c0,27.5 12.83,58.06 36.78,58.06 18.27,0 40.48,-38.19 40.48,-38.19 0,0 1.23,38.19 27.89,38.19 24.19,0 69.85,-111.53 79.72,-137.5 2.47,-7.03 -4.2,-9.47 -7.16,-2.44 -8.39,20.78 -51.59,125.28 -68.87,125.28 -17.77,0 19.99,-81.89 19.99,-93.2 0,-11.3 -25.92,-31.17 -25.92,-18.94 0,12.22 -33.57,114.59 -62.44,114.59 -33.81,0 23.69,-151.25 58.5,-151.25 21.97,0 21.23,22.92 20.24,25.67 -0.74,2.44 2.96,6.72 5.19,0 2.47,-7.03 1.23,-45.83 -33.81,-45.83 -44.19,0 -90.59,72.11 -90.59,125.58z"/>
 </g>
</svg>
